<?xml version="1.0" standalone="no"?>
<!DOCTYPE svg PUBLIC "-//W3C//DTD SVG 20010904//EN"
 "http://www.w3.org/TR/2001/REC-SVG-20010904/DTD/svg10.dtd">
<svg version="1.0" xmlns="http://www.w3.org/2000/svg"
 width="256.000000pt" height="256.000000pt" viewBox="0 0 256.000000 256.000000"
 preserveAspectRatio="xMidYMid meet">

<g transform="translate(0.000000,256.000000) scale(0.100000,-0.100000)"
fill="#000000" stroke="none">
<path d="M0 2160 l0 -400 400 0 400 0 0 400 0 400 -400 0 -400 0 0 -400z m610
205 l0 -55 -75 0 -75 0 0 -195 0 -195 -65 0 -65 0 0 195 0 195 -75 0 -75 0 0
55 0 55 215 0 215 0 0 -55z"/>
<path d="M880 2160 l0 -400 400 0 400 0 0 400 0 400 -400 0 -400 0 0 -400z
m470 10 l0 -250 -65 0 -65 0 0 250 0 250 65 0 65 0 0 -250z"/>
<path d="M1760 2160 l0 -400 400 0 400 0 0 400 0 400 -400 0 -400 0 0 -400z
m434 95 l71 -159 3 162 2 162 65 0 65 0 0 -250 0 -251 -92 3 -92 3 -66 147
c-37 82 -70 151 -73 155 -4 3 -7 -64 -7 -150 l0 -157 -65 0 -65 0 0 250 0 251
92 -3 92 -3 70 -160z"/>
<path d="M0 1280 l0 -400 400 0 400 0 0 400 0 400 -400 0 -400 0 0 -400z m310
159 l0 -91 75 91 76 91 81 0 80 0 -88 -97 c-48 -54 -97 -108 -107 -120 l-20
-22 112 -130 c61 -71 111 -132 111 -135 0 -3 -36 -6 -79 -6 l-79 0 -81 101
-81 102 0 -102 0 -101 -70 0 -70 0 0 255 0 255 70 0 70 0 0 -91z"/>
<path d="M880 1280 l0 -400 400 0 400 0 0 400 0 400 -400 0 -400 0 0 -400z
m550 200 l0 -50 -100 0 -100 0 0 -50 0 -50 100 0 100 0 0 -50 0 -50 -100 0
-100 0 0 -50 0 -50 105 0 105 0 0 -50 0 -50 -175 0 -175 0 0 250 0 250 170 0
170 0 0 -50z"/>
<path d="M1760 1280 l0 -400 400 0 400 0 0 400 0 400 -400 0 -400 0 0 -400z
m482 238 c106 -31 137 -155 57 -222 -28 -24 -29 -27 -15 -49 9 -13 34 -67 55
-120 l40 -97 -72 0 -72 0 -29 81 c-33 92 -46 109 -87 109 l-29 0 0 -95 0 -95
-65 0 -65 0 0 250 0 250 121 0 c67 0 139 -5 161 -12z"/>
<path d="M2090 1375 l0 -55 38 0 c50 0 82 23 82 60 0 36 -23 50 -79 50 l-41 0
0 -55z"/>
<path d="M0 400 l0 -400 400 0 400 0 0 400 0 400 -400 0 -400 0 0 -400z m530
231 c22 -6 25 -13 28 -60 l3 -53 -38 8 c-100 22 -158 6 -206 -57 -46 -63 -26
-179 39 -219 38 -24 119 -29 167 -11 16 6 30 11 33 11 2 0 4 -24 4 -54 l0 -54
-50 -11 c-142 -31 -273 17 -324 118 -79 155 -7 333 154 382 31 9 156 9 190 0z"/>
<path d="M880 400 l0 -400 400 0 400 0 0 400 0 400 -400 0 -400 0 0 -400z
m574 -8 c49 -130 92 -243 94 -250 3 -10 -11 -12 -63 -10 l-68 3 -21 58 -20 58
-96 -3 -95 -3 -20 -58 -20 -57 -62 0 c-35 0 -63 3 -63 8 0 4 41 116 92 250
l91 242 81 0 81 0 89 -238z"/>
<path d="M1249 433 c-13 -37 -25 -71 -27 -75 -2 -4 24 -8 58 -8 59 0 61 1 54
23 -18 60 -46 127 -53 127 -4 0 -18 -30 -32 -67z"/>
<path d="M1760 400 l0 -400 400 0 400 0 0 400 0 400 -400 0 -400 0 0 -400z
m516 203 c86 -46 119 -115 112 -239 -5 -98 -41 -157 -122 -199 -54 -27 -68
-30 -187 -33 l-129 -4 0 252 0 252 143 -4 c122 -3 148 -6 183 -25z"/>
<path d="M2080 379 l0 -161 43 7 c65 11 97 32 118 78 53 118 -10 237 -125 237
l-36 0 0 -161z"/>
</g>
</svg>
