<?xml version="1.0" standalone="no"?>
<!DOCTYPE svg PUBLIC "-//W3C//DTD SVG 20010904//EN"
 "http://www.w3.org/TR/2001/REC-SVG-20010904/DTD/svg10.dtd">
<svg version="1.0" xmlns="http://www.w3.org/2000/svg"
 width="452.000000pt" height="452.000000pt" viewBox="0 0 452.000000 452.000000"
 preserveAspectRatio="xMidYMid meet">

<g transform="translate(0.000000,452.000000) scale(0.100000,-0.100000)"
fill="#000000" stroke="none">
<path d="M1189 3801 c-142 -6 -147 -7 -185 -36 -103 -77 -267 -257 -343 -375
l-43 -65 4 -125 c3 -113 6 -130 31 -178 112 -215 369 -258 525 -88 44 47 81
116 82 149 0 9 5 17 10 17 6 0 10 -8 10 -17 0 -34 47 -118 89 -160 64 -63 121
-87 218 -91 70 -3 89 -1 135 21 98 44 162 118 188 217 l13 45 14 -49 c42 -143
169 -236 323 -236 156 0 280 93 325 243 l13 42 12 -45 c26 -99 90 -173 188
-217 46 -22 65 -24 135 -21 97 4 154 28 218 91 42 42 89 126 89 160 0 9 5 17
10 17 6 0 10 -8 10 -17 1 -33 38 -102 82 -149 125 -136 322 -140 453 -9 74 74
99 138 103 270 3 81 0 120 -10 145 -39 91 -287 371 -387 436 l-44 29 -1061 1
c-584 1 -1127 -2 -1207 -5z"/>
<path d="M1216 2817 c-57 -78 -195 -147 -297 -147 l-47 0 -8 -52 c-11 -82 -8
-873 5 -1063 30 -437 82 -710 144 -749 47 -30 362 -68 722 -87 254 -13 1047
-7 1250 11 156 13 422 46 486 61 41 9 49 16 72 57 47 86 81 253 109 537 15
147 18 1130 5 1228 l-8 57 -48 0 c-101 0 -241 70 -298 149 l-27 38 -27 -37
c-34 -47 -95 -95 -156 -122 -39 -18 -67 -23 -148 -23 -88 0 -107 3 -157 27
-75 35 -119 69 -153 118 l-27 39 -38 -48 c-149 -188 -471 -188 -620 0 l-38 48
-26 -37 c-33 -48 -83 -87 -154 -120 -49 -23 -70 -27 -152 -27 -135 0 -230 44
-303 139 l-33 43 -28 -40z m604 -309 c30 -15 72 -44 92 -65 l38 -38 82 7 c107
8 349 8 456 0 79 -7 84 -6 105 16 68 74 167 112 287 112 138 0 226 -44 307
-154 87 -116 143 -258 238 -606 112 -407 126 -505 82 -590 -32 -64 -77 -84
-202 -88 -265 -10 -458 132 -498 366 l-11 64 -46 -6 c-261 -34 -655 -39 -884
-12 -76 10 -139 16 -140 14 -2 -2 -7 -31 -13 -65 -16 -85 -59 -168 -118 -228
-99 -98 -216 -139 -380 -133 -125 4 -169 24 -203 89 -21 40 -23 53 -18 139 4
75 19 149 76 360 86 322 127 447 185 566 53 109 108 181 171 225 71 48 115 59
234 56 91 -2 112 -6 160 -29z"/>
<path d="M2138 2018 c-62 -62 -124 -128 -136 -145 l-23 -33 75 0 75 0 3 -67 3
-68 125 0 125 0 3 68 3 67 75 0 75 0 -23 32 c-28 40 -246 258 -257 258 -5 0
-60 -51 -123 -112z"/>
</g>
</svg>
